P2
80 60
270
0 24 30 27 36 30 34 36 38 38 45 38 37 37 40 43 47 42 50 50 53 53 59 61 61 63 70 67 71 75 75 84 96 109 118 121 112 108 104 104 100 101 102 103 102 103 104 103 103 99 94 91 88 85 79 80 79 76 73 73 74 66 62 57 51 44 39 45 51 55 58 59 67 80 95 96 95 83 81 97 
10 31 34 31 31 30 35 33 38 39 41 40 39 38 40 44 45 48 53 51 52 57 61 66 67 64 70 68 72 76 76 84 99 115 119 124 111 113 105 105 102 103 103 102 104 106 104 108 106 104 97 92 85 82 82 79 79 77 77 73 68 66 65 62 58 48 52 50 53 54 59 66 78 83 83 92 97 95 100 114 
21 34 40 37 35 36 36 36 37 36 45 40 41 43 43 43 44 48 60 57 61 57 63 66 64 68 71 73 77 78 80 88 101 114 121 124 115 115 106 106 102 101 104 104 102 109 107 110 109 103 98 93 87 86 83 85 80 81 80 78 72 69 68 67 64 58 64 61 61 63 75 84 83 91 111 128 120 104 110 120 
27 39 39 39 42 38 39 36 38 39 50 51 49 46 47 47 50 52 60 62 61 61 66 70 68 71 76 79 79 87 87 90 100 115 121 128 121 119 115 109 110 107 110 106 106 111 112 112 115 110 102 101 88 88 84 86 83 81 81 79 75 77 73 70 67 64 69 68 69 81 91 86 94 120 137 124 102 89 90 97 
34 38 42 43 40 40 39 41 41 41 47 55 53 52 52 52 53 56 61 66 65 66 70 77 74 77 78 85 90 93 93 97 97 113 124 129 122 120 114 112 110 107 110 107 111 111 110 116 118 115 105 106 90 89 87 87 82 87 83 79 79 77 76 74 74 74 71 79 83 92 95 102 126 135 118 91 71 72 75 84 
37 47 46 44 40 42 41 44 47 46 49 55 53 56 61 57 59 61 64 69 70 70 77 73 78 81 84 90 88 93 92 94 107 122 130 130 126 126 118 119 115 114 118 110 112 113 116 120 118 116 109 103 97 92 93 92 90 88 88 84 84 80 83 77 80 84 88 98 101 98 106 124 128 108 85 63 64 63 67 72 
40 48 50 45 40 44 46 46 51 48 53 55 55 61 64 63 66 63 68 72 67 73 78 81 81 84 86 91 93 93 94 97 101 120 130 130 129 125 120 119 116 117 115 114 114 118 120 119 119 121 106 104 98 97 94 91 90 93 90 86 84 85 87 86 94 99 105 103 97 112 120 115 98 77 65 61 60 65 67 66 
43 46 50 41 48 43 50 52 52 54 54 59 57 59 67 70 71 68 70 75 72 74 75 83 83 87 89 97 94 96 96 97 107 122 130 132 135 130 120 120 121 118 119 118 116 118 122 122 124 124 112 107 101 97 97 92 93 92 91 86 91 88 94 100 111 112 107 102 111 116 105 86 69 62 66 62 66 67 64 65 
44 53 47 46 46 48 54 54 55 56 56 59 58 61 64 75 70 72 72 75 74 76 81 84 86 88 95 98 101 99 101 98 104 121 129 132 132 135 126 125 123 121 121 119 119 126 127 130 130 126 117 111 101 103 96 94 92 93 91 96 99 102 109 112 113 108 108 111 112 97 82 72 69 66 66 63 66 68 64 62 
45 51 53 52 52 50 55 57 58 57 60 63 61 59 63 68 74 73 76 75 71 77 80 84 84 86 93 97 99 100 102 101 106 118 130 135 132 135 129 127 121 122 124 121 123 125 129 129 129 124 122 112 104 103 103 96 94 92 98 102 109 120 121 115 107 105 108 105 89 80 77 70 70 71 68 65 64 71 65 61 
46 57 55 52 51 52 55 60 60 63 62 68 60 65 67 70 71 78 80 78 75 77 82 87 86 88 93 98 99 104 105 105 109 120 131 133 137 138 130 128 125 124 125 125 126 128 128 131 131 128 117 113 103 98 95 94 88 84 93 105 117 118 109 105 105 103 98 87 81 80 75 73 73 72 72 68 66 71 66 63 
49 54 61 55 59 54 55 67 67 66 65 69 70 68 72 74 71 80 86 85 78 79 81 83 90 91 96 99 102 102 107 109 108 123 131 140 137 142 135 129 129 125 128 125 127 130 131 132 135 132 119 112 103 54 100 94 50 74 92 110 115 109 105 101 106 100 91 91 83 84 79 74 74 73 73 68 69 69 65 64 
53 58 58 57 57 54 61 68 70 68 72 76 73 76 76 75 74 78 90 94 89 88 83 87 89 96 97 107 106 103 107 108 110 124 132 140 137 142 136 132 129 127 126 130 132 134 132 136 136 135 125 115 92 55 101 78 37 70 90 100 102 102 98 101 101 96 93 88 85 81 79 80 81 77 74 69 69 67 64 64 
50 60 61 58 62 58 55 69 70 71 75 80 74 78 76 80 80 78 86 96 89 86 88 86 88 96 100 108 103 107 110 111 115 125 136 139 135 144 136 132 128 127 130 130 132 136 137 139 138 137 127 114 88 84 103 82 56 70 89 94 100 98 102 98 99 94 92 89 86 85 79 78 75 74 75 71 70 66 66 67 
54 59 62 59 60 61 59 66 71 70 72 80 79 80 77 78 77 83 89 93 93 94 90 91 94 95 102 107 106 108 107 113 115 127 135 139 137 143 140 131 132 129 132 133 135 136 140 139 138 138 126 115 108 106 104 99 90 83 85 94 97 98 100 100 99 92 88 84 80 80 78 79 73 76 72 73 72 69 67 58 
55 61 61 62 63 65 65 64 72 71 76 79 75 77 76 80 81 86 92 97 94 97 98 97 101 101 106 108 108 107 107 117 119 127 132 141 141 145 141 135 133 131 134 134 136 137 140 140 143 140 130 120 111 105 105 99 98 97 93 93 96 98 99 95 91 91 89 85 81 82 77 78 77 72 75 70 71 70 65 62 
55 61 64 68 66 67 67 68 77 73 76 78 74 76 76 85 79 87 91 93 92 96 99 94 95 96 101 105 111 112 118 121 123 127 136 140 138 149 143 141 135 135 135 138 138 141 142 144 144 144 133 121 116 109 104 104 104 104 100 98 97 94 93 91 89 90 89 88 88 83 86 79 79 75 78 71 71 74 64 64 
56 64 68 68 69 67 65 70 72 75 80 80 79 78 79 83 81 82 88 98 92 93 99 97 94 95 104 102 107 114 117 119 120 125 136 138 143 154 148 143 137 132 140 142 141 137 140 142 145 144 137 126 116 108 108 106 108 108 104 97 97 93 94 91 92 87 87 86 88 84 78 77 79 77 78 74 74 74 69 66 
57 61 66 63 66 67 66 67 71 71 77 74 78 78 81 83 80 83 87 92 94 94 100 103 94 99 103 106 109 116 123 121 121 128 133 141 143 149 148 146 139 138 141 139 138 139 137 146 147 145 137 127 117 112 111 107 108 107 106 101 103 95 93 94 90 91 90 91 86 84 86 82 79 78 77 79 74 75 68 69 
57 66 66 65 69 68 64 67 68 69 72 78 77 79 81 84 81 83 87 93 95 94 99 101 100 98 105 109 113 117 119 121 126 126 134 140 139 154 153 148 139 140 143 140 139 139 142 143 144 146 137 128 122 114 109 108 109 105 108 100 101 93 98 93 92 92 93 89 87 84 85 83 82 78 82 79 76 77 70 69 
56 62 63 62 63 67 64 68 65 67 68 74 71 76 76 76 73 75 85 90 89 94 95 103 98 102 104 108 110 115 122 127 124 130 135 138 140 153 152 151 143 140 140 137 137 135 143 144 144 143 139 130 121 113 110 109 108 108 104 99 100 98 95 95 91 91 92 89 85 87 86 86 84 82 79 77 75 75 70 68 
57 61 64 62 67 66 66 70 68 66 69 71 73 71 73 78 71 73 79 83 80 94 90 98 103 101 103 109 109 116 125 129 126 130 135 137 143 154 157 147 145 143 141 139 137 139 141 143 142 142 134 124 121 116 112 110 108 105 104 99 101 99 99 94 94 93 92 89 89 87 88 85 87 84 84 77 79 76 73 67 
51 64 64 62 62 63 65 67 68 67 69 72 71 70 74 72 71 75 78 79 80 83 90 93 101 97 99 97 103 108 123 126 125 126 130 139 145 154 151 146 147 142 145 137 137 137 138 142 140 140 133 125 121 114 112 111 108 109 104 102 100 98 94 97 94 93 91 91 91 91 89 86 87 86 81 79 79 75 72 67 
54 59 59 62 65 66 67 67 68 65 70 75 71 73 73 75 73 74 78 82 79 83 91 92 102 100 95 97 96 108 121 124 123 122 126 137 147 157 150 149 146 149 147 144 141 141 139 138 143 143 135 120 120 114 114 108 110 110 110 105 101 100 100 97 94 95 92 94 88 91 90 89 86 86 81 76 76 77 69 72 
53 60 62 63 68 66 66 67 68 68 73 71 73 72 74 75 77 77 81 82 83 84 94 95 100 103 105 98 102 110 121 125 125 128 129 135 142 154 152 149 148 149 150 144 143 138 140 140 140 141 137 124 116 111 112 109 108 109 106 106 108 104 102 98 93 95 97 95 92 92 91 88 85 85 82 78 79 76 73 64 
55 58 62 61 65 65 67 69 69 65 71 72 73 74 74 78 76 78 81 82 80 83 95 96 98 107 108 106 108 114 121 124 127 127 129 135 142 153 153 149 147 149 152 146 142 140 139 136 139 139 128 120 116 108 107 107 110 107 104 102 105 105 100 97 94 96 93 95 93 89 94 91 85 84 81 81 77 77 67 67 
53 64 66 62 67 67 63 68 68 68 68 70 74 73 76 80 78 79 83 86 81 87 93 103 97 110 113 113 115 118 118 121 125 124 125 127 133 150 151 151 146 151 152 148 141 140 137 138 137 130 118 114 116 109 110 107 109 105 99 101 105 105 102 97 98 94 97 95 93 90 92 89 86 88 85 80 77 78 71 69 
52 61 63 61 68 65 67 69 70 67 73 74 75 73 73 79 78 82 80 87 87 87 96 98 106 107 112 118 120 114 117 118 121 123 122 120 121 140 140 144 145 146 152 145 144 138 131 127 121 117 108 114 111 108 107 105 106 103 102 103 106 100 101 100 98 95 98 93 93 90 91 88 88 83 80 83 77 78 72 70 
55 63 64 64 67 67 69 71 70 71 73 73 72 73 77 82 84 84 84 89 90 90 94 99 107 110 118 118 116 114 116 117 119 122 119 114 110 125 135 133 138 135 140 140 130 124 119 114 107 110 111 111 112 110 107 109 107 105 98 104 107 102 101 98 94 96 98 95 97 93 91 87 83 85 84 83 79 77 72 71 
54 61 62 61 69 66 69 71 72 69 75 77 75 77 79 83 87 88 90 90 91 92 96 100 106 116 115 105 106 105 109 112 112 112 114 112 104 126 129 121 133 125 120 118 113 110 106 97 95 104 105 112 108 104 107 107 104 105 104 103 102 103 102 97 95 95 97 94 90 92 93 89 87 86 82 81 79 77 70 71 
49 61 63 63 67 68 71 70 73 70 76 78 81 84 80 91 97 105 102 96 92 94 98 102 109 109 104 105 104 105 103 102 102 106 111 110 114 129 120 119 124 113 115 111 105 104 103 97 95 102 105 109 111 105 105 103 105 102 107 102 103 102 100 97 94 95 95 94 91 91 89 87 88 86 79 82 79 78 71 71 
51 59 65 64 69 68 73 72 76 76 80 85 89 90 95 107 125 133 128 114 107 98 100 100 108 106 104 103 104 103 110 105 105 105 109 117 111 109 116 113 116 111 118 111 112 109 103 100 102 102 108 108 109 106 103 105 104 108 108 104 105 104 100 97 96 93 93 93 93 93 87 85 81 82 82 82 81 78 75 70 
51 58 64 63 66 68 75 80 83 87 91 94 101 99 99 117 130 134 135 129 120 115 103 108 109 106 99 102 103 105 106 109 107 108 107 105 103 116 112 114 120 118 118 116 115 113 106 104 106 105 105 110 110 108 107 104 106 105 109 107 107 105 100 94 97 92 92 94 95 90 87 83 82 83 81 80 81 79 75 69 
52 61 65 66 65 68 78 94 98 93 92 99 100 100 105 127 135 135 133 121 115 115 119 114 115 111 104 104 103 105 103 120 146 144 116 115 121 125 122 128 129 125 124 121 121 116 112 107 109 107 111 109 109 103 108 105 108 108 107 106 107 101 95 96 96 97 95 96 93 92 87 90 84 82 86 80 78 76 75 69 
51 58 66 63 68 70 85 105 114 100 96 98 100 104 104 136 146 154 127 132 140 140 140 133 118 126 111 114 110 109 124 157 151 144 122 126 124 133 132 136 132 129 130 124 122 126 124 120 115 113 111 110 111 108 109 107 108 110 109 107 105 102 95 96 95 97 97 95 92 89 87 88 84 86 84 75 81 80 74 67 
50 57 64 65 67 71 84 105 115 111 98 97 103 105 113 232 270 167 139 143 140 145 151 154 124 150 139 131 114 114 125 137 118 127 130 131 129 135 137 136 134 130 132 128 126 127 125 127 125 117 111 110 107 107 108 107 109 110 111 106 102 101 99 97 95 98 95 96 94 92 89 86 87 84 82 78 80 75 69 72 
50 57 61 62 67 68 77 93 112 120 105 99 100 103 113 226 255 166 140 142 149 174 170 154 127 148 148 154 154 129 120 120 116 125 131 138 131 137 138 139 133 131 130 129 128 126 125 130 131 123 112 111 110 109 111 114 122 114 112 107 104 101 100 99 100 96 98 96 92 93 88 90 86 86 80 78 76 74 72 72 
47 59 60 61 63 66 73 83 99 112 116 99 100 97 103 123 138 151 137 118 133 159 164 148 127 144 162 172 190 174 152 134 121 125 126 138 130 141 141 139 139 134 132 129 127 127 130 132 134 131 116 108 113 113 119 118 135 121 113 106 102 102 100 99 99 99 98 97 90 92 87 86 85 85 79 77 74 77 69 67 
48 57 59 58 61 65 65 73 89 103 125 114 97 99 101 107 104 109 103 102 102 116 140 153 126 121 169 186 184 174 166 155 140 137 125 138 136 141 141 142 141 136 142 131 128 128 133 137 134 134 120 120 118 121 128 144 151 138 120 109 103 102 104 101 96 97 100 95 92 92 86 87 84 83 79 76 76 75 70 70 
46 54 58 57 56 63 66 71 77 91 113 127 107 98 97 99 102 92 103 97 95 101 107 124 123 141 172 173 175 170 166 161 173 179 145 132 140 152 145 145 142 138 140 135 134 135 133 136 137 137 130 125 120 124 137 160 163 156 128 112 110 113 111 103 97 93 95 92 88 89 87 83 82 82 81 73 72 74 67 67 
46 51 60 59 61 64 64 67 75 84 102 123 123 106 96 99 99 94 97 96 98 98 101 103 111 134 158 169 172 174 174 171 198 182 147 138 142 153 149 147 144 144 144 137 135 135 136 134 137 147 145 132 126 123 136 158 162 148 122 109 130 150 139 115 99 97 92 94 88 87 87 83 80 79 78 74 74 74 67 65 
48 55 58 58 60 63 63 70 71 70 88 110 124 116 102 103 97 99 100 100 97 98 103 102 104 109 127 150 151 147 153 178 171 155 145 143 141 154 149 147 146 149 148 138 137 134 135 134 136 148 149 139 130 119 120 124 127 123 111 108 131 157 152 126 105 94 93 92 89 84 90 82 77 77 77 73 73 70 68 67 
49 51 54 55 57 61 60 64 68 68 78 93 113 122 116 103 98 95 101 104 102 104 104 100 104 105 110 114 113 117 154 161 156 155 145 142 145 155 148 145 150 148 152 144 137 135 137 136 130 139 146 136 128 116 116 116 116 116 114 107 116 125 133 116 105 98 93 89 88 87 83 80 82 76 75 74 73 70 67 69 
46 51 52 57 56 61 56 60 62 65 70 86 102 124 130 114 97 95 101 99 100 103 108 104 106 104 108 109 109 110 122 138 154 161 142 138 146 152 144 144 146 148 150 145 138 135 135 129 126 124 126 124 120 114 114 112 110 109 110 103 101 102 107 104 103 92 90 86 87 83 83 78 80 74 73 69 70 70 66 64 
45 52 57 56 57 59 57 61 61 62 67 72 90 105 125 128 106 100 101 97 100 106 105 107 108 109 108 105 106 107 116 125 146 164 138 137 144 151 143 143 144 144 146 137 136 132 135 125 119 115 115 118 114 112 111 110 107 108 104 101 98 95 95 100 100 94 91 86 86 82 81 81 75 74 73 70 64 72 65 64 
44 49 55 57 56 55 55 58 63 57 64 67 77 90 112 138 125 101 97 97 98 98 102 98 107 109 108 107 104 102 112 113 119 128 123 133 142 148 141 141 138 138 137 136 133 131 131 124 114 112 110 114 113 111 112 104 106 102 99 98 95 92 88 92 96 89 88 88 81 78 80 76 73 73 73 66 66 69 62 57 
44 53 59 57 55 58 58 60 59 56 61 65 71 82 96 125 132 116 99 100 98 102 102 102 104 104 107 110 100 97 108 113 115 119 119 135 142 145 139 136 135 136 134 134 131 131 128 121 111 110 107 112 112 113 109 107 105 105 98 98 89 86 80 88 89 86 86 81 80 77 76 72 70 72 73 65 65 64 58 56 
40 52 56 53 55 61 62 65 62 58 64 66 63 71 83 104 126 132 113 103 95 99 101 104 104 104 112 110 104 105 112 115 112 121 120 130 133 143 135 137 136 134 137 134 132 132 126 118 105 105 106 112 113 109 104 104 103 99 96 85 78 78 77 83 82 82 78 80 76 73 71 72 70 65 66 62 64 63 58 54 
36 43 47 52 55 62 57 60 62 61 65 66 63 64 72 90 110 130 132 111 98 100 99 103 101 102 107 108 106 110 115 114 114 119 122 130 132 140 134 131 132 131 134 131 134 126 120 114 102 102 106 108 107 104 102 103 97 99 87 80 82 83 85 84 83 78 81 80 76 69 69 72 69 67 65 63 63 60 55 52 
34 41 42 43 46 51 55 57 58 62 66 69 63 66 68 84 94 119 134 126 105 95 101 103 101 100 107 111 111 111 115 113 114 117 123 129 133 133 131 129 131 128 134 133 129 124 115 109 103 100 100 104 103 105 102 97 91 88 85 86 87 88 86 83 81 78 75 79 75 66 68 67 64 63 61 57 63 57 54 51 
28 34 37 40 46 47 47 50 50 60 65 66 67 72 76 83 86 99 123 138 117 99 97 102 103 100 105 110 110 113 113 112 112 119 126 125 123 131 126 130 130 129 132 126 126 118 114 103 100 102 97 102 105 103 99 91 87 85 87 92 93 88 89 84 82 77 77 77 72 69 66 65 63 60 59 58 55 59 53 50 
27 36 39 39 44 43 45 46 48 52 63 65 64 67 73 78 78 90 105 127 122 112 99 100 100 100 106 105 110 113 114 114 114 120 123 125 122 123 125 127 126 122 126 126 123 118 108 93 90 96 99 108 104 101 95 87 86 88 90 88 91 87 86 83 83 77 76 73 68 66 62 61 57 59 57 55 58 59 50 50 
27 33 34 35 38 43 42 41 47 49 52 56 55 59 62 65 68 75 89 112 127 134 113 101 98 97 101 109 107 109 111 109 111 119 122 127 120 121 122 121 123 123 123 122 118 116 106 94 85 89 96 101 106 101 95 96 94 96 89 85 88 83 85 81 74 71 74 70 68 61 59 53 55 57 56 51 55 51 51 42 
20 32 38 37 35 37 37 40 44 42 48 50 52 55 54 60 58 62 75 94 116 135 129 110 98 99 102 105 106 109 108 111 111 115 123 122 115 120 121 121 123 118 121 119 120 113 105 91 88 92 95 103 107 104 108 114 111 98 91 86 85 88 80 77 72 70 71 72 80 68 60 57 53 50 54 49 49 48 45 41 
22 30 34 33 34 34 33 40 41 42 46 47 47 52 51 53 54 57 65 83 95 120 128 124 107 100 101 102 108 110 110 112 108 116 120 120 111 116 116 115 117 117 116 113 112 109 99 93 93 93 98 100 101 108 120 124 115 99 88 81 77 82 83 78 68 66 66 66 65 65 60 58 51 48 48 47 43 45 39 43 
18 24 29 31 32 35 34 38 39 38 36 47 43 45 50 50 49 55 58 71 82 102 126 135 121 108 107 109 112 113 117 112 114 114 117 114 105 114 113 115 113 110 113 109 111 103 98 87 86 92 95 99 101 103 113 100 101 108 96 78 77 75 73 72 71 66 68 66 67 60 55 53 45 46 44 38 40 41 39 39 
17 24 27 28 27 34 30 33 36 38 38 44 41 42 39 49 46 50 55 60 68 86 110 131 131 113 109 114 116 116 118 115 113 118 118 114 106 110 106 113 111 108 108 104 102 100 92 89 86 85 93 96 93 101 122 114 92 97 103 82 70 69 69 69 65 62 63 59 57 59 48 39 36 30 35 34 35 38 33 34 
16 21 26 23 28 30 29 31 35 34 35 39 41 40 41 47 48 48 52 56 58 69 89 113 130 126 114 113 115 117 117 114 111 117 120 110 97 105 108 107 108 102 105 100 96 98 86 83 82 84 87 94 89 93 99 100 84 86 86 89 82 70 67 63 62 61 60 58 52 52 51 38 34 31 37 32 33 34 32 31 
10 18 21 21 22 26 32 29 32 31 37 39 35 38 40 43 43 43 52 59 55 61 78 95 115 124 121 108 107 105 105 102 113 137 117 107 96 102 102 104 106 101 105 98 95 91 83 78 79 81 86 90 87 82 84 84 84 84 83 77 80 70 71 64 57 57 57 51 47 47 48 41 34 33 33 30 29 30 30 25 
2 17 20 23 22 27 28 28 29 30 41 37 35 37 38 43 44 49 51 58 53 54 63 81 97 122 124 124 109 105 97 100 105 115 132 111 99 102 102 104 105 102 107 101 95 90 82 77 78 81 84 89 88 81 82 80 82 84 83 76 75 68 66 58 55 53 58 52 46 41 44 36 34 30 30 28 28 33 33 22 


