P2
80 60
62778
0 0 0 0 0 0 0 0 0 0 0 0 0 0 0 0 0 0 0 0 0 0 0 0 0 0 0 0 0 0 0 0 0 0 0 0 7168 15149 50975 34591 18207 1822 50975 50975 34592 50977 18208 50978 1825 34593 34594 34595 34595 1827 18211 34597 1830 18214 50983 18215 18215 50984 50986 1834 34602 1833 18217 1832 18215 34599 18214 50984 18217 18218 1835 50989 34604 50989 1838 50990 
0 0 0 0 0 0 0 0 0 0 0 0 0 0 0 0 0 0 0 0 0 0 0 0 0 0 0 0 0 0 0 0 0 0 0 0 0 0 0 0 0 0 0 0 0 0 0 0 0 0 0 0 0 0 0 0 0 0 0 0 0 0 0 0 0 0 0 0 0 0 0 0 0 0 0 0 0 0 0 0 
0 0 0 0 0 0 0 0 0 0 0 0 0 0 0 0 0 0 0 0 0 0 0 0 0 0 0 0 0 0 0 0 0 0 0 0 0 0 0 0 0 0 0 0 0 0 0 0 0 0 0 0 0 0 0 0 0 0 0 0 0 0 0 0 0 0 0 0 0 0 0 0 0 0 0 0 0 0 0 0 
0 0 0 0 0 0 0 0 0 0 0 0 0 0 0 0 0 0 0 0 0 0 0 0 0 0 0 0 0 0 0 0 0 0 0 0 0 0 0 0 0 0 0 0 0 0 0 0 0 0 0 0 0 0 0 0 0 0 0 0 0 0 0 0 0 0 0 0 0 0 0 0 0 0 0 0 0 0 0 0 
29468 29480 29480 29492 29512 29516 29520 29512 29528 29524 29536 29528 29532 29536 29536 29556 29552 29568 29568 29580 29588 29612 29588 29620 29616 29608 29608 29600 29608 29588 29568 29612 29588 29596 29608 29600 29624 29600 29604 29616 29604 29612 29636 29612 29612 29596 29608 29600 29548 29544 29536 29548 29516 29544 29540 29544 29536 29504 29512 29476 29476 29484 29480 29492 29492 29452 29432 29416 29408 29400 29409 49207 49516 29392 29404 29400 29400 29432 29448 29460 
0 0 0 0 0 0 0 0 0 0 0 0 0 0 0 0 0 0 0 0 0 0 0 0 0 0 0 0 0 0 0 0 0 0 0 0 0 0 0 0 0 0 0 0 0 0 0 0 0 0 0 0 0 0 0 0 0 0 0 0 0 0 0 0 0 0 0 0 0 0 0 0 0 0 0 0 0 0 0 0 
0 0 0 0 0 0 0 0 0 0 0 0 0 0 0 0 0 0 0 0 0 0 0 0 0 0 0 0 0 0 0 0 0 0 0 0 0 0 0 0 0 0 0 0 0 0 0 0 0 0 0 0 0 0 0 0 0 0 0 0 0 0 0 0 0 0 0 0 0 0 0 0 0 0 0 0 0 0 0 0 
0 0 0 0 0 0 0 0 0 0 0 0 0 0 0 0 0 0 0 0 0 0 0 0 0 0 0 0 0 0 0 0 0 0 0 0 0 0 0 0 0 0 0 0 0 0 0 0 0 0 0 0 0 0 0 0 0 0 0 0 0 0 0 0 0 0 0 0 0 0 0 0 0 0 0 0 0 0 0 0 
29220 29228 29236 29244 29244 29240 29260 29272 29268 29296 29308 29308 29312 29332 29344 29356 29356 29348 29376 29384 29340 29332 29332 29300 29356 29344 29352 29380 29424 29396 29392 29420 29424 29428 29432 29428 29412 29448 29396 29384 29364 29352 29316 29364 29332 29320 29320 29324 29344 29280 29348 29344 29340 29348 29356 29396 29460 29476 29456 29428 29420 29400 29340 29280 29256 29220 29200 29196 29184 29204 29212 11 3084 29200 29208 29196 29196 29200 29216 29204 
0 0 0 0 0 0 0 0 0 0 0 0 0 0 0 0 0 0 0 0 0 0 0 0 0 0 0 0 0 0 0 0 0 0 0 0 0 0 0 0 0 0 0 0 0 0 0 0 0 0 0 0 0 0 0 0 0 0 0 0 0 0 0 0 0 0 0 0 0 0 0 0 0 0 0 0 0 0 0 0 
0 0 0 0 0 0 0 0 0 0 0 0 0 0 0 0 0 0 0 0 0 0 0 0 0 0 0 0 0 0 0 0 0 0 0 0 0 0 0 0 0 0 0 0 0 0 0 0 0 0 0 0 0 0 0 0 0 0 0 0 0 0 0 0 0 0 0 0 0 0 0 0 0 0 0 0 0 0 0 0 
0 0 0 0 0 0 0 0 0 0 0 0 0 0 0 0 0 0 0 0 0 0 0 0 0 0 0 0 0 0 0 0 0 0 0 0 0 0 0 0 0 0 0 0 0 0 0 0 0 0 0 0 0 0 0 0 0 0 0 0 0 0 0 0 0 0 0 0 0 0 0 0 0 0 0 0 0 0 0 0 
29468 29460 29476 29468 29472 29480 29504 29504 29520 29524 29536 29532 29552 29560 29556 29544 29560 29556 29556 29564 29564 29596 29592 29572 29588 29556 29572 29576 29584 29572 29584 29584 29592 29568 29568 29556 29556 29564 29552 29544 29552 29556 29544 29560 29540 29540 29520 29524 29548 29524 29528 29520 29496 29464 29468 29468 29464 29408 29440 29416 29428 29412 29444 29444 29408 29400 29392 29376 29364 29384 29412 186 11264 29364 29360 29360 29344 29420 29424 29428 
0 0 0 0 0 0 0 0 0 0 0 0 0 0 0 0 0 0 0 0 0 0 0 0 0 0 0 0 0 0 0 0 0 0 0 0 0 0 0 0 0 0 0 0 0 0 0 0 0 0 0 0 0 0 0 0 0 0 0 0 0 0 0 0 0 0 0 0 0 0 0 0 0 0 0 0 0 0 0 0 
0 0 0 0 0 0 0 0 0 0 0 0 0 0 0 0 0 0 0 0 0 0 0 0 0 0 0 0 0 0 0 0 0 0 0 0 0 0 0 0 0 0 0 0 0 0 0 0 0 0 0 0 0 0 0 0 0 0 0 0 0 0 0 0 0 0 0 0 0 0 0 0 0 0 0 0 0 0 0 0 
0 0 0 0 0 0 0 0 0 0 0 0 0 0 0 0 0 0 0 0 0 0 0 0 0 0 0 0 0 0 0 0 0 0 0 0 0 0 0 0 0 0 0 0 0 0 0 0 0 0 0 0 0 0 0 0 0 0 0 0 0 0 0 0 0 0 0 0 0 0 0 0 0 0 0 0 0 0 0 0 
29284 29292 29296 29320 29320 29344 29320 29332 29336 29352 29364 29360 29408 29380 29392 29376 29400 29396 29396 29396 29404 29372 29396 29384 29408 29392 29412 29400 29404 29404 29420 29420 29444 29444 29452 29456 29460 29420 29440 29424 29420 29400 29400 29416 29408 29408 29404 29360 29364 29368 29372 29344 29344 29316 29356 29300 29320 29312 29268 29260 29248 29220 29224 29196 29208 29208 29208 29160 29156 29140 29164 222 25576 29088 29124 29148 29152 29164 29140 29164 
0 0 0 0 0 0 0 0 0 0 0 0 0 0 0 0 0 0 0 0 0 0 0 0 0 0 0 0 0 0 0 0 0 0 0 0 0 0 0 0 0 0 0 0 0 0 0 0 0 0 0 0 0 0 0 0 0 0 0 0 0 0 0 0 0 0 0 0 0 0 0 0 0 0 0 0 0 0 0 0 
0 0 0 0 0 0 0 0 0 0 0 0 0 0 0 0 0 0 0 0 0 0 0 0 0 0 0 0 0 0 0 0 0 0 0 0 0 0 0 0 0 0 0 0 0 0 0 0 0 0 0 0 0 0 0 0 0 0 0 0 0 0 0 0 0 0 0 0 0 0 0 0 0 0 0 0 0 0 0 0 
0 0 0 0 0 0 0 0 0 0 0 0 0 0 0 0 0 0 0 0 0 0 0 0 0 0 0 0 0 0 0 0 0 0 0 0 0 0 0 0 0 0 0 0 0 0 0 0 0 0 0 0 0 0 0 0 0 0 0 0 0 0 0 0 0 0 0 0 0 0 0 0 0 0 0 0 0 0 0 0 
29464 29468 29472 29496 29528 29520 29532 29540 29532 29536 29536 29544 29552 29560 29556 29564 29556 29552 29556 29584 29588 29600 29616 29616 29600 29608 29612 29604 29596 29600 29604 29588 29580 29608 29600 29612 29640 29600 29608 29628 29628 29632 29624 29632 29588 29628 29612 29588 29572 29540 29560 29540 29516 29528 29524 29512 29508 29544 29476 29476 29484 29488 29456 29460 29444 29428 29424 29416 29412 29416 29425 49210 40512 29400 29424 29416 29416 29444 29456 29456 
0 0 0 0 0 0 0 0 0 0 0 0 0 0 0 0 0 0 0 0 0 0 0 0 0 0 0 0 0 0 0 0 0 0 0 0 0 0 0 0 0 0 0 0 0 0 0 0 0 0 0 0 0 0 0 0 0 0 0 0 0 0 0 0 0 0 0 0 0 0 0 0 0 0 0 0 0 0 0 0 
0 0 0 0 0 0 0 0 0 0 0 0 0 0 0 0 0 0 0 0 0 0 0 0 0 0 0 0 0 0 0 0 0 0 0 0 0 0 0 0 0 0 0 0 0 0 0 0 0 0 0 0 0 0 0 0 0 0 0 0 0 0 0 0 0 0 0 0 0 0 0 0 0 0 0 0 0 0 0 0 
0 0 0 0 0 0 0 0 0 0 0 0 0 0 0 0 0 0 0 0 0 0 0 0 0 0 0 0 0 0 0 0 0 0 0 0 0 0 0 0 0 0 0 0 0 0 0 0 0 0 0 0 0 0 0 0 0 0 0 0 0 0 0 0 0 0 0 0 0 0 0 0 0 0 0 0 0 0 0 0 
29468 29456 29480 29500 29500 29520 29524 29532 29544 29524 29536 29540 29544 29552 29560 29568 29564 29552 29564 29592 29572 29592 29600 29604 29620 29616 29612 29616 29596 29584 29620 29608 29608 29596 29612 29612 29608 29652 29608 29632 29636 29636 29620 29604 29620 29632 29620 29624 29596 29572 29564 29548 29540 29544 29548 29544 29536 29524 29512 29492 29492 29496 29484 29484 29480 29472 29472 29432 29440 29412 29436 16445 52612 29420 29436 29436 29444 29452 29476 29476 
0 0 0 0 0 0 0 0 0 0 0 0 0 0 0 0 0 0 0 0 0 0 0 0 0 0 0 0 0 0 0 0 0 0 0 0 0 0 0 0 0 0 0 0 0 0 0 0 0 0 0 0 0 0 0 0 0 0 0 0 0 0 0 0 0 0 0 0 0 0 0 0 0 0 0 0 0 0 0 0 
0 0 0 0 0 0 0 0 0 0 0 0 0 0 0 0 0 0 0 0 0 0 0 0 0 0 0 0 0 0 0 0 0 0 0 0 0 0 0 0 0 0 0 0 0 0 0 0 0 0 0 0 0 0 0 0 0 0 0 0 0 0 0 0 0 0 0 0 0 0 0 0 0 0 0 0 0 0 0 0 
0 0 0 0 0 0 0 0 0 0 0 0 0 0 0 0 0 0 0 0 0 0 0 0 0 0 0 0 0 0 0 0 0 0 0 0 0 0 0 0 0 0 0 0 0 0 0 0 0 0 0 0 0 0 0 0 0 0 0 0 0 0 0 0 0 0 0 0 0 0 0 0 0 0 0 0 0 0 0 0 
29488 29496 29492 29496 29524 29532 29564 29544 29552 29548 29536 29564 29552 29572 29580 29560 29564 29572 29584 29584 29588 29600 29596 29632 29624 29632 29636 29636 29628 29648 29616 29628 29624 29616 29620 29628 29608 29628 29644 29640 29644 29624 29652 29640 29632 29644 29640 29640 29620 29628 29564 29588 29584 29556 29528 29540 29512 29548 29528 29520 29512 29500 29492 29504 29496 29488 29468 29444 29452 29432 29456 16453 44132 29440 29464 29472 29480 29492 29488 29496 
0 0 0 0 0 0 0 0 0 0 0 0 0 0 0 0 0 0 0 0 0 0 0 0 0 0 0 0 0 0 0 0 0 0 0 0 0 0 0 0 0 0 0 0 0 0 0 0 0 0 0 0 0 0 0 0 0 0 0 0 0 0 0 0 0 0 0 0 0 0 0 0 0 0 0 0 0 0 0 0 
0 0 0 0 0 0 0 0 0 0 0 0 0 0 0 0 0 0 0 0 0 0 0 0 0 0 0 0 0 0 0 0 0 0 0 0 0 0 0 0 0 0 0 0 0 0 0 0 0 0 0 0 0 0 0 0 0 0 0 0 0 0 0 0 0 0 0 0 0 0 0 0 0 0 0 0 0 0 0 0 
0 0 0 0 0 0 0 0 0 0 0 0 0 0 0 0 0 0 0 0 0 0 0 0 0 0 0 0 0 0 0 0 0 0 0 0 0 0 0 0 0 0 0 0 0 0 0 0 0 0 0 0 0 0 0 0 0 0 0 0 0 0 0 0 0 0 0 0 0 0 0 0 0 0 0 0 0 0 0 0 
29488 29472 29488 29496 29504 29520 29528 29536 29548 29564 29552 29572 29584 29584 29576 29572 29588 29604 29592 29604 29572 29584 29596 29600 29608 29600 29628 29616 29580 29608 29616 29600 29600 29576 29592 29584 29588 29608 29572 29588 29568 29604 29596 29576 29572 29560 29532 29560 29540 29580 29532 29532 29520 29500 29476 29504 29464 29436 29480 29436 29456 29448 29456 29456 29464 29436 29432 29420 29432 29420 29416 180 48024 29364 29400 29400 29380 29404 29416 29424 
0 0 0 0 0 0 0 0 0 0 0 0 0 0 0 0 0 0 0 0 0 0 0 0 0 0 0 0 0 0 0 0 0 0 0 0 0 0 0 0 0 0 0 0 0 0 0 0 0 0 0 0 0 0 0 0 0 0 0 0 0 0 0 0 0 0 0 0 0 0 0 0 0 0 0 0 0 0 0 0 
18212 34596 1829 18213 34598 18214 50983 18216 1832 34601 1834 1834 34602 18218 18218 34602 18216 50984 1831 34599 18217 18217 50987 34604 18221 50989 34604 50990 50991 1839 1838 50990 18222 34606 1836 50988 1834 50985 34601 1834 1833 1833 34600 50985 1833 1833 34601 34602 18218 1833 50985 50986 18221 50992 34610 34610 50995 1840 1838 18220 1832 50982 1828 34595 34593 34594 1826 16384 18798 34593 34592 1824 1824 34592 34592 18208 34592 50978 1826 18210 
50979 50980 1829 34597 34597 34599 1831 50984 1832 1833 18218 1834 50986 50986 1836 1836 18217 34601 34601 18215 18219 1834 1834 34604 18223 1837 18221 1838 50990 50991 18223 34607 18222 18224 34605 18220 34603 18218 34600 18219 34601 34600 18216 50985 18218 34598 1834 18218 1833 34602 34602 50989 1841 34610 34609 18223 18222 50989 50986 34598 1828 18210 34593 50977 1825 34593 50978 0 44005 18209 34593 34592 34593 1826 1826 50977 18210 50980 1829 50982 
29476 29472 29488 29500 29516 29536 29528 29536 29544 29540 29540 29532 29548 29552 29544 29548 29560 29572 29560 29584 29600 29596 29628 29628 29628 29628 29640 29612 29632 29608 29608 29608 29604 29608 29600 29608 29596 29608 29596 29592 29620 29624 29628 29624 29612 29628 29632 29632 29604 29564 29560 29556 29548 29568 29544 29512 29520 29496 29496 29488 29476 29476 29460 29468 29476 29476 29480 29436 29416 29444 29452 67 32872 29436 29448 29448 29456 29484 29492 29480 
18213 34596 34599 34599 1830 18216 1832 50987 1834 1834 1834 34603 1836 1836 1837 50989 1835 18220 18220 1836 34603 50988 50989 1839 34606 18223 1840 34610 1840 34610 18225 50993 1839 18224 18225 34608 18222 18221 1838 1834 1836 18221 34605 1837 1837 50989 34603 34603 1834 50987 50988 50992 50994 18226 18226 50992 34607 1834 18219 1830 18213 1828 50980 18212 34594 34594 1827 49152 51517 1826 18210 18210 50979 18212 18211 1826 18211 1829 50983 34600 
0 0 0 0 0 0 0 0 0 0 0 0 0 0 0 0 0 0 0 0 0 0 0 0 0 0 0 0 0 0 0 0 0 0 0 0 0 0 0 0 0 0 0 0 0 0 0 0 0 0 0 0 0 0 0 0 0 0 0 0 0 0 0 0 0 0 0 0 0 0 0 0 0 0 0 0 0 0 0 0 
0 0 0 0 0 0 0 0 0 0 0 0 0 0 0 0 0 0 0 0 0 0 0 0 0 0 0 0 0 0 0 0 0 0 0 0 0 0 0 0 0 0 0 0 0 0 0 0 0 0 0 0 0 0 0 0 0 0 0 0 0 0 0 0 0 0 0 0 0 0 0 0 0 0 0 0 0 0 0 0 
29476 29472 29488 29504 29504 29524 29528 29532 29540 29540 29540 29532 29548 29552 29544 29544 29560 29572 29560 29580 29596 29588 29612 29620 29620 29628 29640 29608 29632 29608 29608 29600 29604 29608 29596 29600 29592 29608 29596 29592 29620 29620 29624 29616 29612 29628 29632 29632 29596 29560 29552 29552 29540 29564 29540 29512 29520 29492 29496 29488 29476 29472 29460 29468 29476 29476 29476 29428 29412 29432 29432 66 39632 29432 29448 29448 29456 29484 29484 29480 
1830 50983 34599 18216 34599 34602 1834 18218 50987 34604 1836 18220 18221 1837 34607 18222 1837 1836 1837 50988 1837 34605 34605 34606 1839 1841 1841 18226 50994 34610 34609 50992 34609 1840 18226 1841 34606 34608 18220 50988 50988 1837 1835 50988 1836 1835 34604 1835 50989 34602 50986 50988 34608 18224 18225 50990 50987 18216 50983 50981 34597 1830 18213 1829 1826 1827 18212 23553 5948 1828 34596 18211 50978 18214 50982 50981 50982 1831 1830 18217 
34601 34601 18219 50985 50986 50986 1834 50987 34604 50989 50990 1839 1838 18222 34607 34607 50987 34607 1839 1837 18224 18224 18223 50990 50993 1842 34610 50996 18227 50996 1842 34610 1842 50994 34611 50994 50993 34609 18224 50993 34609 1839 1840 1839 1839 1840 18222 1838 18223 18222 50988 1839 34608 1839 34608 50989 1834 34603 34599 1831 50983 34596 50983 34598 50983 1828 18213 34817 30101 1828 34597 18213 50981 1830 34598 34600 50984 1833 34601 34602 
34603 1835 50989 18220 18220 1837 50988 34604 50989 18222 18224 1839 18224 50991 34609 1841 18222 18222 50992 34607 18225 18226 1838 34608 1841 34610 50994 18228 1843 50996 1842 50994 18227 1843 50994 50995 18226 18226 50993 1841 50993 1840 34608 50991 18225 1839 34607 1839 18222 34608 18222 50989 18222 18222 50990 50986 50986 18218 18216 34599 50982 34598 50982 34597 50981 18213 34598 32769 48337 1830 18213 50982 50984 18216 50984 50984 50986 50986 34602 50989 
34605 1837 50990 34605 18222 1838 18221 34607 1839 50993 34609 1841 50994 34610 1843 1843 1843 50995 1843 50995 1841 34610 50993 1841 50996 1843 18228 50997 34612 50997 18229 1845 1846 50998 18228 34613 34612 50996 50997 34611 18226 1842 34610 34610 34610 1840 18225 50991 1840 50992 50992 1839 1838 50989 34607 50991 34606 34603 34604 34602 1833 34601 18215 34599 1832 34598 1831 32769 62778 34599 18216 18216 1832 50985 1834 50986 34604 1836 34605 1837 
50989 34607 34607 34608 1839 34607 1839 50992 34609 50994 1842 1842 50995 18227 34612 1842 34611 34612 1843 50995 50994 50995 34611 34610 18228 1845 1844 34613 18229 1846 50997 50997 1846 50998 34615 34615 50997 50996 34613 34611 50995 34612 18226 34611 34610 50992 50994 18224 34608 50991 34607 18222 50990 18221 50990 50988 18221 50988 34603 50988 1834 34601 34600 50983 34600 1831 34599 18434 1112 18217 1832 34600 34600 50985 50987 18219 34605 34605 1838 18222 
1838 1836 34607 18220 1835 50985 50986 1831 18218 34601 18215 34599 50983 18217 34597 34601 1833 1832 18216 50985 18218 50992 34609 18224 1838 34605 1837 1832 1829 18211 34593 1823 50976 18207 34593 18209 16384 34688 34591 50976 18207 34591 34591 50977 34592 34594 18210 50980 50980 34596 1828 50981 1827 1829 34597 18213 18213 50984 18217 1833 34600 50986 18218 18219 50987 34604 34604 18219 18219 18219 1835 34602 34604 1836 50991 50989 34606 34608 18224 50992 
34608 50993 34611 1842 18226 18225 18225 1841 34610 34611 18227 1842 34610 50997 18230 34613 50997 34614 34614 50999 34614 18230 50998 34613 50996 1845 1846 1845 34614 34615 34615 50999 1847 1847 1848 51001 1848 18231 50998 34613 18231 18231 50998 1845 34611 1842 34612 18226 18228 1842 34608 34609 34608 50992 1838 18222 1840 1839 1840 18221 1837 18219 18218 18215 34600 34601 18219 2 32785 18218 34603 1835 1835 50989 18221 50988 50990 50991 50992 1839 
34607 50990 34607 18224 18223 50989 1836 1837 34601 34603 1835 50987 34603 50988 50988 34602 34602 34601 18218 18219 18222 50993 18225 18225 50991 34606 1833 1833 1829 1828 1827 18211 34595 50978 1825 1826 32768 57025 50976 34592 18208 50978 1826 18210 34592 50978 50980 50982 1831 1831 34598 18213 1830 18214 1830 50982 34600 34600 50985 1834 1834 34602 50987 1836 50988 18221 50988 34604 1835 34604 34603 1835 50988 18220 50989 50990 1840 34607 50994 1842 
50991 18224 18222 34609 50993 1838 1839 18219 50988 18219 1835 18218 1834 18218 34602 50987 1835 1836 1834 18217 34603 1840 1838 50992 34605 34602 18216 18214 1827 50979 50980 34595 50980 34592 18211 18209 55297 3974 34594 18210 34594 1825 34596 34598 1829 18213 34598 1829 50984 34600 18217 50985 18216 34602 18217 1833 50984 50986 18218 50987 18220 18220 34606 1839 1838 1839 1838 50987 34607 1839 34605 1839 34607 34606 50991 1841 18226 18226 34611 50994 
50994 1842 18225 50994 34609 50993 18224 50992 18224 34608 34605 34607 1838 18221 50991 18220 50989 18222 34606 18219 18222 34607 34607 18224 34604 1833 34601 50981 34598 34598 50979 18214 1830 1829 50980 50979 33793 24287 1826 50980 18212 34596 34597 50981 34600 18215 34600 18216 1833 1833 50986 34602 34603 1835 1834 34603 1836 50988 1835 50988 34605 50990 34606 18224 50991 1839 18224 1837 18222 1839 18222 50991 18225 18221 34608 1841 18226 18226 18227 34611 
18225 1841 50994 34609 34611 1841 50994 34608 18224 50992 34607 18223 50990 50991 18223 1838 18222 18221 34607 50989 50987 50989 18221 18222 18217 50985 18216 50983 1830 34597 1828 50981 1828 18211 50981 18213 1 41465 18212 50980 34598 1831 1831 18215 1832 1833 50984 50986 1835 34603 50988 1836 18220 1836 50988 1837 1837 1836 18222 1838 1839 50991 50992 1842 1841 1841 34610 18227 18226 1842 34609 18223 50994 18224 1841 34612 1843 34611 50996 18227 
1843 18228 34612 50995 50996 34611 34612 1844 50994 1840 50993 34608 50992 50992 1839 34608 1837 34607 34607 50990 50989 34607 1837 1838 34606 50989 34602 1834 34601 34601 1832 1830 34598 34599 1830 18214 16385 59609 18213 1830 34598 34598 50984 1833 18217 18219 50986 34603 50988 50987 50989 18220 34605 50989 34605 50990 18221 50991 1839 1840 1840 34608 50993 50994 18226 18226 50993 34611 34610 34610 34610 34608 50994 34610 18225 18227 34612 18227 18228 34612 
50995 50997 50996 50997 34614 34612 34612 1844 34610 50994 50995 1841 1842 18225 18223 18225 1839 18224 1838 18221 34604 50989 18221 1837 18218 50988 50986 50985 18218 18215 50983 18215 18215 1830 50984 1831 2050 4918 34599 1831 1830 34599 18216 1834 1834 50988 18219 18220 34605 1838 1838 34606 18222 18224 34608 34607 18223 34608 1840 18224 50993 34609 1842 18226 18227 1842 50995 50994 1844 50996 34613 34612 50995 34613 1844 1844 1844 34612 34613 50997 
1846 1846 1845 50999 34615 34615 18230 50997 50996 34614 1846 50996 34612 34609 18225 50995 18225 1843 18226 1839 18224 18223 18222 50989 1836 50990 50989 34606 34603 18219 34601 50985 34599 1830 50985 1834 2 37251 34601 1834 1833 34602 50988 34604 34604 18221 50990 1838 50992 1840 34608 18226 34610 50993 18225 18226 1841 34610 1842 18226 18226 18227 1843 1843 18228 18229 18230 1846 34615 1847 1847 34615 18231 1846 1846 1845 50998 1847 1847 1846 
34615 34616 1849 1848 51002 34619 1850 18234 34619 1850 51002 18235 18234 34618 18235 1851 1850 18234 34619 18237 18237 34621 18238 34622 18238 34623 34623 18237 1851 1852 18237 1851 18236 1852 1853 51005 1853 1853 1852 1852 51006 18238 51005 51007 1853 34619 51003 51003 18234 18234 18233 50998 1847 34616 1847 34614 18230 34614 34615 1844 50998 1846 1844 1843 50996 18227 18226 49157 13990 50996 18228 50996 34611 34613 50997 1846 50998 18230 18231 34615 
34618 1850 1851 51001 51003 1851 34620 1850 34618 18235 1851 34618 51003 18233 18232 1847 1846 1845 34614 18229 50997 34613 50996 18227 18227 18226 50994 1841 1841 34609 18225 18226 18224 18223 50991 18222 6147 57573 50989 18222 18223 1838 50992 1840 34609 18225 50993 34609 34610 1841 34611 1843 50997 1844 18229 1845 34613 18229 34613 1845 34614 1845 50997 34615 1847 18231 1847 18233 1848 51002 34619 1850 18235 18235 51003 51003 51002 18233 51001 51001 
18233 34617 1849 34616 34617 51002 51003 1850 51003 1850 1851 1852 18235 34616 50998 50998 50998 34613 34615 18230 1844 1844 50994 34610 1842 18225 50992 34608 50993 18225 1841 18225 34607 50989 50992 34606 20484 7321 18222 34608 34608 18223 50993 34610 1841 34609 50994 34610 34610 50994 50995 34612 34614 1846 50998 1846 1846 1845 1847 1846 1846 50999 18231 1847 50999 34616 51000 51000 51000 34617 51003 18235 1851 51004 1852 34619 1852 1851 18235 18235 
18234 51000 51001 18237 18236 18236 34619 18235 18235 18235 1851 1852 18235 18234 51002 18231 50999 51000 50998 18229 18230 50998 1844 34611 18227 18229 1842 18228 18228 1841 34608 34608 18225 18225 1841 1841 4100 47982 34607 50994 1842 18227 1843 18227 18226 50995 34612 18228 18229 1845 1846 1847 34615 18231 18231 51000 34616 51000 50999 51000 34617 1849 1849 18234 1849 51001 51002 34618 34620 1852 1852 18236 51005 1855 18239 1854 51006 34623 1853 34620 
18234 1850 51002 51004 51004 18236 18236 51003 34619 51005 18236 51004 51005 18235 51002 51002 51002 18233 34616 51000 18229 1846 1846 34614 1845 18230 18229 18229 50995 50997 1844 34611 1843 34610 34610 1841 49157 3950 34609 50995 18226 34610 50995 50995 18229 34614 1845 1846 50998 18230 1847 18231 18231 50999 34617 1848 34617 18233 1849 51002 51002 1850 34618 51003 18236 1850 34619 51002 34619 1852 18236 51005 1853 18236 18239 34623 18239 34621 51006 34621 


