P2
80 60
184
60 58 65 63 62 64 63 58 61 64 67 68 64 68 71 75 78 75 80 81 81 84 83 90 90 85 83 85 87 83 84 77 79 82 90 89 97 101 99 101 108 103 100 102 102 101 101 97 94 88 88 84 88 84 91 83 86 84 87 89 93 90 90 95 93 105 123 132 130 124 115 108 101 95 85 79 73 66 70 68 
61 57 64 64 63 58 54 58 59 61 68 69 67 66 69 75 78 77 78 82 81 85 86 88 92 90 85 89 93 86 84 82 75 87 86 87 93 106 98 97 102 102 101 102 106 102 106 96 95 94 90 85 93 87 84 85 83 91 77 88 91 90 90 94 101 120 129 126 113 112 107 90 82 73 68 64 67 67 68 66 
64 64 69 65 65 73 56 66 74 78 80 81 80 78 73 84 87 77 82 89 92 95 89 92 95 95 94 97 94 94 94 93 95 92 100 100 110 104 108 114 119 109 111 113 114 105 110 113 112 99 99 107 92 90 98 97 98 105 105 96 96 91 94 99 119 122 127 130 121 114 101 98 84 78 75 76 76 74 76 68 
71 70 74 77 72 73 70 73 80 84 92 93 84 82 84 83 91 83 92 93 97 98 94 99 98 100 102 102 98 97 94 101 95 94 98 98 101 107 113 112 118 114 112 114 111 115 105 120 114 102 110 99 100 93 95 93 95 104 98 99 100 104 94 98 98 119 122 126 113 102 94 85 81 77 80 75 80 72 77 78 
76 75 78 74 82 91 81 84 85 81 97 96 97 95 92 97 96 94 93 95 98 100 106 104 108 104 104 108 108 95 108 107 101 108 107 111 105 117 123 120 127 115 112 116 117 123 114 123 121 115 119 115 115 117 107 111 106 109 113 106 108 107 114 102 106 117 119 123 108 96 99 83 88 84 74 84 86 86 76 80 
76 77 76 79 84 85 88 88 90 90 93 100 100 101 99 101 101 99 105 98 100 105 109 114 107 110 106 109 115 103 108 111 105 109 115 105 105 113 118 119 122 116 114 112 119 117 120 119 121 121 124 114 117 114 114 112 107 112 108 111 111 108 116 110 100 108 112 112 98 96 97 89 89 81 76 81 79 81 81 73 
85 88 89 87 92 97 95 99 97 97 110 106 108 108 107 109 107 106 104 107 112 111 117 118 117 118 116 117 122 125 125 125 120 116 121 112 116 126 122 123 126 124 126 123 127 133 131 127 129 129 133 129 121 115 119 119 118 116 115 120 110 118 118 117 112 111 108 115 112 113 104 104 98 95 94 86 86 92 83 87 
90 94 93 91 93 103 101 107 104 106 110 110 109 112 117 115 118 114 108 115 114 121 120 119 122 125 123 118 117 127 125 128 124 120 124 122 120 126 127 126 130 130 130 127 127 135 133 136 136 132 132 131 125 124 126 121 124 123 116 124 114 120 114 114 109 110 110 115 104 110 102 99 105 94 92 92 90 94 89 89 
96 90 96 96 96 106 103 109 109 110 115 116 120 116 116 121 122 118 116 121 121 120 122 120 127 125 122 123 122 121 130 130 134 131 125 131 128 130 132 131 135 129 130 132 136 136 137 141 141 142 142 142 139 136 139 129 128 127 130 131 124 121 124 123 120 115 114 113 107 115 118 118 114 99 93 94 95 99 95 90 
98 97 99 103 105 111 110 110 113 111 113 120 121 122 124 126 127 124 117 121 122 124 128 123 123 121 125 131 128 132 137 138 138 130 135 133 132 127 132 131 131 136 133 136 138 136 134 142 144 143 142 137 137 138 140 135 135 122 127 130 121 129 121 118 120 118 118 116 111 118 116 119 107 111 98 101 92 100 101 100 
104 105 105 109 108 113 111 115 118 117 120 123 124 129 131 128 127 128 125 128 129 130 127 130 128 125 128 131 136 141 141 141 142 140 140 137 137 136 136 141 137 134 141 144 146 144 144 145 145 142 148 147 147 142 147 149 137 130 134 135 131 133 136 122 127 128 129 128 116 119 119 116 114 106 104 109 106 110 102 104 
112 114 109 108 115 116 117 120 122 119 125 126 126 132 136 133 135 132 134 136 135 132 134 131 131 138 138 136 139 142 143 145 142 139 143 139 145 142 141 140 139 142 144 139 149 149 144 147 143 145 155 147 147 151 150 142 139 130 133 133 131 134 135 129 128 134 134 129 118 120 119 115 115 117 108 120 106 109 109 109 
114 117 115 112 120 124 121 124 124 127 132 131 135 139 138 139 141 136 137 140 139 139 139 139 142 143 144 144 146 149 151 149 154 154 150 149 152 155 151 141 150 148 149 150 150 156 150 152 153 153 157 161 157 152 156 157 155 144 145 138 141 136 140 147 142 143 135 137 127 123 131 127 133 132 124 123 123 126 114 118 
116 119 118 116 120 127 125 128 126 125 128 131 130 139 142 140 142 138 144 141 146 142 144 140 143 140 140 139 143 150 148 154 155 150 151 153 152 150 149 150 148 145 149 148 152 157 150 152 157 158 159 158 157 152 160 158 154 151 143 147 141 136 138 137 135 139 148 130 130 131 129 131 131 123 122 126 122 126 117 122 
120 121 119 123 124 126 127 131 129 126 127 130 131 135 139 141 144 142 140 143 141 138 144 144 144 143 139 144 145 147 148 151 151 155 158 155 159 148 145 149 149 150 144 149 152 154 158 156 157 158 164 158 156 157 163 160 160 157 152 147 143 138 143 143 144 145 142 137 131 130 130 132 130 131 132 135 127 126 118 116 
125 126 125 126 126 132 130 133 128 132 129 131 137 137 140 141 144 143 144 143 141 142 144 141 142 142 144 142 144 147 148 155 156 154 159 159 154 159 150 149 153 143 148 146 150 148 148 150 152 156 158 157 160 156 160 163 161 152 149 147 142 135 147 143 132 137 132 133 133 126 127 129 128 129 133 132 124 124 120 125 
121 131 127 129 136 138 130 131 136 133 137 130 135 136 143 147 147 146 145 137 146 146 143 148 144 142 143 147 142 146 150 152 158 158 160 158 162 159 160 152 154 153 151 155 154 151 154 163 163 160 159 161 164 162 159 165 165 162 162 150 149 146 144 137 138 134 148 143 140 136 131 139 136 135 135 129 130 132 123 121 
127 132 137 132 137 137 131 136 136 139 139 138 136 139 147 148 149 147 145 147 149 150 148 148 144 146 151 148 146 150 154 155 159 159 163 156 166 155 159 157 155 156 151 154 156 151 150 164 161 163 162 161 162 160 160 165 164 162 160 151 153 150 142 143 146 144 147 138 140 137 133 142 140 130 128 130 127 133 123 127 
127 135 138 139 140 138 134 139 142 139 144 147 146 150 148 151 155 152 154 157 151 152 153 151 153 155 155 154 153 158 161 159 164 164 165 174 171 169 168 170 166 160 156 151 152 160 157 163 163 162 164 167 161 166 163 171 171 171 169 167 168 151 155 157 148 152 137 148 144 148 147 147 148 144 142 144 145 136 130 131 
134 136 141 140 142 145 143 144 147 143 151 149 149 150 148 150 156 158 158 154 159 160 154 155 157 154 152 157 155 152 153 154 161 165 166 164 168 167 168 168 162 153 157 158 155 155 156 161 163 163 169 160 162 169 168 169 170 168 163 162 161 154 154 154 143 146 148 147 144 145 144 148 144 143 146 138 142 144 132 134 
133 136 139 139 139 140 143 148 146 150 148 152 146 147 152 154 159 154 156 153 160 160 157 158 162 157 158 157 157 156 157 160 164 162 168 163 171 173 172 167 168 161 152 156 160 155 154 159 161 166 163 164 168 176 170 169 172 171 175 166 164 160 166 152 148 148 145 144 150 149 155 142 150 147 141 139 142 139 133 130 
142 139 143 143 146 150 142 146 150 151 150 149 151 150 151 155 158 151 152 162 161 164 163 159 162 165 158 158 152 160 153 155 161 161 166 165 160 169 172 164 169 157 155 153 157 159 153 158 160 161 163 161 167 169 172 170 170 168 168 168 167 163 147 154 147 149 136 143 143 140 140 142 143 143 137 139 139 143 132 133 
142 145 144 146 148 146 146 147 153 152 156 152 151 152 155 160 159 159 153 165 165 159 162 161 166 166 165 164 165 161 161 154 167 168 168 169 169 170 173 175 164 161 164 156 163 166 160 158 160 161 163 168 170 168 170 172 173 172 171 169 168 161 152 163 160 157 156 155 149 148 146 144 147 144 149 147 147 142 137 139 
147 149 149 148 151 150 148 152 154 155 155 154 154 157 154 161 163 160 158 163 163 170 164 161 170 172 164 166 161 160 162 156 162 167 172 167 163 170 170 163 161 165 157 156 163 167 163 158 153 159 161 165 169 169 166 167 173 159 159 169 167 167 167 155 154 159 157 152 148 148 144 149 147 142 138 143 143 145 136 136 
148 150 150 147 148 154 149 156 154 150 159 158 154 157 160 163 165 161 164 167 167 171 175 170 170 169 173 172 174 171 169 170 170 167 175 172 172 174 172 172 170 166 163 172 173 174 167 167 165 167 161 164 171 170 173 171 171 173 168 172 171 168 170 169 167 170 161 160 162 155 154 153 151 147 148 148 148 146 136 136 
152 148 148 147 149 150 151 156 152 154 159 155 158 159 160 162 168 164 163 163 170 165 170 171 170 168 167 167 163 169 175 162 163 173 172 172 172 166 164 169 163 166 164 179 170 170 169 164 163 162 162 164 166 167 166 163 166 171 172 170 167 167 168 169 160 163 160 160 158 154 152 151 151 146 148 147 145 142 136 140 
150 150 150 150 151 153 150 155 157 157 163 157 162 161 164 168 171 165 165 164 168 167 177 174 172 169 167 165 170 171 169 173 174 171 178 174 171 167 168 177 179 169 179 178 179 173 167 169 173 170 162 163 161 164 168 167 168 173 170 171 167 167 170 174 163 161 170 170 163 162 156 152 152 146 152 152 152 146 140 142 
147 149 147 152 151 150 152 154 158 153 159 161 159 161 164 164 174 168 166 169 165 170 168 170 173 170 170 167 166 170 172 171 173 169 176 170 170 168 172 169 180 176 173 175 174 173 165 165 169 174 162 164 160 160 165 171 168 164 168 169 167 166 168 167 161 165 165 162 159 150 151 146 146 145 145 145 145 142 142 146 
147 152 150 149 152 152 155 158 158 158 157 160 161 160 161 170 171 163 168 165 169 173 170 168 175 171 172 171 171 171 175 174 177 176 177 175 173 175 175 176 177 179 179 180 180 179 172 170 169 172 172 166 168 161 166 171 174 172 171 169 168 166 164 172 169 169 164 165 166 168 152 150 154 152 144 147 146 147 141 140 
153 152 150 156 154 152 160 161 162 160 161 161 160 156 164 166 170 167 169 165 170 167 171 168 172 169 171 170 172 170 173 172 173 172 173 172 173 175 175 173 172 172 177 176 178 178 175 163 167 174 166 166 162 159 163 167 166 170 172 169 164 163 168 166 161 162 167 166 164 154 150 145 148 147 142 138 147 146 143 138 
149 153 152 155 156 156 153 164 161 163 164 164 163 160 162 165 172 167 167 165 168 168 166 169 171 171 176 175 179 180 182 177 174 178 176 173 176 177 182 183 184 177 181 181 180 176 178 180 174 177 166 167 164 164 170 170 169 171 166 168 165 166 167 169 167 166 164 167 169 165 154 155 145 147 146 147 144 151 141 141 
152 154 155 154 153 155 155 160 161 161 163 165 167 165 162 167 169 164 163 167 168 172 166 165 172 174 172 179 180 181 182 174 175 176 172 167 170 172 173 174 177 183 178 178 180 180 180 175 173 174 163 164 159 156 161 168 164 164 167 165 168 165 167 169 162 163 162 164 168 163 151 143 147 145 146 138 143 145 141 139 
152 154 152 151 158 156 153 158 157 158 161 164 162 170 165 165 167 164 164 162 165 168 163 163 167 173 173 177 179 176 182 171 173 171 168 172 173 170 178 175 170 175 180 179 177 182 173 176 174 174 170 161 160 165 165 164 159 167 164 164 164 164 165 158 163 168 165 163 164 156 152 154 150 146 142 140 140 141 134 134 
148 149 144 149 152 156 150 151 156 157 158 161 159 156 159 166 167 163 161 160 163 167 162 164 162 158 159 164 167 176 174 171 169 167 170 171 168 168 169 171 162 167 166 166 170 166 170 167 167 170 167 160 165 160 156 158 155 157 158 162 158 159 164 154 153 154 157 164 161 154 159 145 145 146 137 138 139 137 133 133 
151 146 143 147 152 152 146 151 154 156 159 158 153 160 162 164 167 163 165 162 164 168 164 157 161 164 162 161 169 172 173 171 171 169 173 174 169 170 169 170 170 162 158 166 170 165 169 170 168 171 169 164 168 164 159 163 157 161 162 156 158 156 160 161 161 155 159 164 163 158 152 158 150 146 143 138 137 139 132 129 
145 148 149 145 155 150 145 150 154 155 157 157 154 158 160 163 166 166 165 163 163 163 164 162 159 163 164 165 166 172 173 174 173 171 169 174 163 168 164 165 162 155 155 157 157 170 163 168 168 168 162 165 169 162 164 163 164 157 155 159 155 156 160 158 156 162 158 159 163 157 149 151 147 147 138 146 134 133 126 135 
143 143 147 149 150 149 147 148 152 151 151 156 153 158 160 161 167 164 166 168 167 165 163 165 166 164 165 164 162 176 174 174 175 173 179 177 179 171 165 159 159 156 148 152 160 167 166 166 164 172 170 165 172 168 163 166 165 161 159 160 152 156 159 164 163 152 158 158 161 152 155 152 154 138 151 135 141 142 131 129 
141 144 145 141 149 151 146 148 153 154 155 155 153 156 158 160 164 162 164 163 162 163 164 164 164 164 162 162 165 168 171 172 171 170 178 173 168 168 166 164 158 157 151 149 154 162 161 163 161 166 172 163 166 173 165 162 161 158 151 154 152 150 159 159 153 157 155 149 151 149 155 153 150 155 137 134 128 132 133 124 
137 145 142 144 149 156 145 151 153 151 152 155 153 159 159 162 162 161 163 166 163 162 157 158 162 160 161 162 162 164 170 168 168 174 179 176 171 165 165 164 157 155 155 153 153 152 157 162 161 167 170 168 180 179 170 166 161 152 154 155 151 150 158 158 157 157 161 157 153 151 148 152 153 151 151 146 140 133 130 123 
134 132 136 140 144 148 150 147 150 151 151 154 151 150 154 157 158 159 157 157 161 159 154 159 158 157 158 159 155 160 164 166 165 164 171 169 167 163 162 162 154 150 147 148 153 151 150 158 155 160 167 172 178 178 168 155 152 152 149 152 145 142 146 148 143 141 144 160 144 141 141 142 136 139 140 136 129 129 122 123 
131 126 132 137 143 148 146 146 149 146 146 149 144 149 148 157 156 157 153 156 159 158 157 155 160 156 153 152 153 157 160 163 163 162 169 166 163 165 165 154 154 149 145 149 149 150 151 152 155 161 169 173 172 171 162 158 160 151 150 147 144 145 147 149 141 136 151 142 145 141 135 135 141 141 139 133 136 131 124 124 
127 122 128 133 134 141 139 143 143 140 140 145 143 143 147 153 152 149 150 152 155 158 154 153 152 151 149 151 153 157 157 160 154 158 163 168 164 166 162 151 155 149 144 146 145 149 149 148 151 159 164 168 168 165 158 163 159 156 150 146 146 138 135 139 132 134 134 131 131 131 131 131 132 130 132 131 134 131 123 121 
124 125 129 133 141 137 140 143 145 139 141 139 143 142 142 146 152 144 149 150 153 151 151 151 150 150 153 153 152 155 156 156 156 155 161 163 164 166 165 158 154 152 147 145 147 152 154 153 153 158 162 167 160 163 160 154 158 158 148 143 140 135 137 136 130 135 135 131 127 130 136 135 140 133 128 132 132 132 125 122 
117 124 124 122 128 131 135 136 138 135 134 132 137 141 143 141 147 145 150 148 149 150 149 151 149 150 151 153 146 149 153 155 151 154 154 159 162 158 158 160 154 142 142 144 148 153 148 149 154 148 154 156 152 150 143 147 146 158 146 136 137 138 132 136 131 126 135 125 124 128 126 130 132 127 130 130 133 134 123 120 
121 119 120 118 125 126 135 133 131 133 131 133 131 134 136 143 145 139 147 145 151 152 152 147 148 152 151 148 153 147 149 150 151 154 152 159 157 149 153 153 149 146 140 145 149 146 150 145 150 147 155 149 147 149 145 141 146 142 151 135 136 136 135 128 131 126 123 132 122 126 124 126 128 127 124 127 126 130 119 116 
115 120 114 112 119 121 118 122 128 125 124 128 125 126 130 134 134 135 140 140 141 142 146 142 145 144 138 140 143 142 150 150 145 149 146 149 145 149 145 147 146 145 137 142 137 144 143 141 139 142 147 141 144 145 138 137 134 145 138 139 134 130 126 127 119 121 116 118 120 117 116 122 121 114 114 117 116 114 113 115 
110 110 106 105 118 119 116 118 125 126 127 126 123 125 129 132 136 132 134 136 136 139 136 141 143 142 140 141 142 140 152 149 149 146 145 147 148 146 149 143 147 143 144 139 144 143 133 143 140 141 140 141 140 144 141 139 133 142 133 134 132 129 123 117 121 121 118 116 116 116 108 113 117 121 115 111 113 110 107 111 
99 106 106 105 107 117 110 119 121 123 125 125 119 119 122 124 129 127 123 130 133 132 135 140 139 141 153 146 133 135 143 143 142 134 142 140 142 141 142 145 140 141 140 142 139 137 133 132 133 136 133 133 136 131 134 133 131 135 131 129 129 118 120 120 115 110 110 106 107 112 107 106 108 108 109 102 104 105 100 101 
99 103 101 104 108 113 111 114 118 117 119 123 117 117 117 122 123 121 124 126 131 136 133 135 139 144 168 161 140 130 143 140 142 135 134 133 139 137 142 141 147 141 137 142 141 133 134 134 134 128 137 137 138 132 133 134 122 132 133 128 129 122 120 120 114 109 105 109 108 109 103 104 107 109 104 107 100 102 92 93 
92 95 96 100 100 102 87 103 111 109 118 115 113 111 116 116 116 119 122 121 125 127 132 128 127 129 134 133 129 128 125 130 135 127 131 128 133 139 131 126 142 136 135 138 129 136 124 124 125 122 123 118 125 122 124 115 117 128 131 121 120 117 117 116 106 103 100 99 99 100 96 100 100 103 94 91 91 90 86 89 
85 92 97 94 95 96 87 104 101 105 109 109 111 109 112 115 123 124 121 122 123 129 126 128 127 116 123 120 124 123 125 127 125 120 129 126 126 130 132 129 134 138 137 138 134 126 126 124 124 124 122 124 124 116 120 120 122 124 113 117 120 117 116 118 108 107 106 101 91 97 96 95 90 92 92 94 89 91 84 79 
76 79 92 77 89 89 84 88 103 96 108 109 107 105 109 109 113 105 111 116 115 121 119 123 118 113 116 115 116 116 116 116 119 119 120 118 121 116 121 114 121 124 128 131 126 122 119 123 119 111 107 114 116 115 116 115 111 110 107 111 107 103 107 108 103 102 99 94 87 84 79 77 83 84 78 79 84 88 82 78 
64 70 74 75 82 85 84 85 99 94 100 104 100 100 101 106 106 98 104 113 115 115 112 120 115 112 108 112 109 110 113 114 120 115 113 117 118 119 111 114 115 121 121 128 126 124 126 122 117 114 105 114 115 118 118 113 110 107 108 102 100 98 108 105 102 99 90 92 85 80 76 75 80 75 80 75 78 84 76 73 
57 60 67 66 71 71 69 81 88 84 91 84 82 97 87 95 99 93 95 97 104 104 109 105 102 99 97 99 106 99 99 102 111 101 104 111 101 104 106 103 107 106 117 115 110 121 108 107 105 105 105 104 109 113 110 109 103 101 97 102 97 95 92 95 94 94 94 77 82 72 69 69 73 69 73 59 65 66 62 65 
48 63 63 64 67 60 65 64 74 79 85 83 88 85 89 91 92 88 93 96 96 103 103 100 95 99 101 94 100 102 95 100 96 105 99 99 98 103 99 105 105 106 107 113 116 113 102 110 105 105 105 100 108 107 109 106 98 98 96 97 95 89 88 92 75 88 84 79 73 75 67 66 61 67 66 66 59 60 51 50 
40 46 54 53 53 52 49 58 67 65 73 69 68 70 78 73 79 85 85 89 87 90 95 94 91 84 86 87 94 93 101 93 89 96 90 93 94 97 92 97 100 99 88 106 104 98 102 101 96 90 88 91 96 95 97 95 83 79 81 76 78 77 75 79 65 68 74 68 65 59 56 54 50 48 46 48 49 55 48 46 
35 48 50 47 52 45 52 55 55 62 72 67 66 69 67 70 71 77 75 82 83 88 90 89 89 79 79 77 83 89 84 87 84 88 91 84 87 99 90 81 85 82 86 94 98 90 93 94 93 82 89 89 88 80 83 78 76 69 63 77 74 69 69 72 64 53 66 60 50 55 50 35 45 42 36 37 44 45 44 42 
27 32 29 36 35 38 33 42 40 41 61 53 53 58 55 51 58 64 63 62 62 65 71 68 77 65 71 71 74 77 83 78 76 75 74 75 70 80 75 77 76 76 73 78 80 84 81 81 84 80 65 64 71 68 71 60 63 65 61 60 57 67 58 54 53 52 45 39 48 42 31 28 23 29 26 26 20 21 22 35 
20 27 31 25 31 27 31 36 40 40 40 53 44 47 47 53 55 53 53 53 58 59 66 68 62 64 59 71 66 70 75 77 71 69 69 67 70 71 73 70 73 63 61 73 72 78 76 73 72 73 71 56 66 59 67 61 59 58 53 54 52 51 51 44 43 40 48 39 31 28 25 26 22 22 18 19 21 21 18 26 
0 10 14 26 23 28 36 41 36 38 40 47 50 47 46 47 55 54 53 53 58 65 65 65 65 56 58 67 66 68 76 71 75 71 66 67 69 71 71 67 58 59 63 65 63 68 69 61 73 68 68 62 61 50 52 57 50 54 47 50 48 41 43 43 40 41 37 33 28 31 29 26 23 15 13 13 15 20 22 20 


